<svg xmlns="http://www.w3.org/2000/svg" viewBox="0 0 960 600" role="img" aria-labelledby="title desc">
  <title id="title">Planner app preview</title>
  <desc id="desc">Polished preview for a planner application project.</desc>
  <rect width="960" height="600" fill="#101112"/>
  <rect x="94" y="70" width="772" height="460" rx="30" fill="#181b1d" stroke="#343b3f" stroke-width="4"/>
  <rect x="138" y="112" width="214" height="376" rx="22" fill="#202527"/>
  <rect x="390" y="112" width="432" height="376" rx="22" fill="#202527"/>
  <rect x="174" y="154" width="120" height="18" rx="9" fill="#34d399"/>
  <rect x="174" y="218" width="132" height="132" rx="20" fill="#101112" stroke="#343b3f" stroke-width="3"/>
  <path d="M204 264h72M204 304h44" stroke="#f59e0b" stroke-width="14" stroke-linecap="round"/>
  <rect x="174" y="384" width="132" height="42" rx="12" fill="#34d399"/>
  <rect x="432" y="154" width="236" height="22" rx="11" fill="#f4f0e8" opacity=".85"/>
  <rect x="432" y="218" width="348" height="62" rx="18" fill="#101112" stroke="#343b3f" stroke-width="3"/>
  <rect x="432" y="312" width="348" height="62" rx="18" fill="#101112" stroke="#343b3f" stroke-width="3"/>
  <rect x="432" y="406" width="348" height="62" rx="18" fill="#101112" stroke="#343b3f" stroke-width="3"/>
  <circle cx="470" cy="249" r="12" fill="#34d399"/>
  <circle cx="470" cy="343" r="12" fill="#f59e0b"/>
  <circle cx="470" cy="437" r="12" fill="#38bdf8"/>
  <path d="M508 248h172M508 342h224M508 436h148" stroke="#f4f0e8" stroke-width="14" stroke-linecap="round" opacity=".64"/>
</svg>
