<svg xmlns="http://www.w3.org/2000/svg" viewBox="0 0 960 600" role="img" aria-labelledby="title desc">
  <title id="title">Club homepage preview</title>
  <desc id="desc">Polished dashboard-style preview for a club homepage project.</desc>
  <rect width="960" height="600" fill="#101112"/>
  <path d="M0 120h960M0 240h960M0 360h960M0 480h960M120 0v600M240 0v600M360 0v600M480 0v600M600 0v600M720 0v600M840 0v600" stroke="#24292c" stroke-width="2"/>
  <rect x="86" y="72" width="788" height="456" rx="28" fill="#181b1d" stroke="#343b3f" stroke-width="4"/>
  <rect x="126" y="116" width="708" height="58" rx="16" fill="#202527"/>
  <rect x="154" y="136" width="150" height="18" rx="9" fill="#34d399"/>
  <rect x="612" y="136" width="72" height="18" rx="9" fill="#f4f0e8" opacity=".7"/>
  <rect x="706" y="136" width="72" height="18" rx="9" fill="#f4f0e8" opacity=".45"/>
  <rect x="126" y="218" width="338" height="238" rx="22" fill="#202527" stroke="#343b3f" stroke-width="3"/>
  <rect x="504" y="218" width="330" height="94" rx="20" fill="#202527" stroke="#343b3f" stroke-width="3"/>
  <rect x="504" y="362" width="330" height="94" rx="20" fill="#202527" stroke="#343b3f" stroke-width="3"/>
  <path d="M166 274h198M166 326h254M166 378h162" stroke="#f4f0e8" stroke-width="18" stroke-linecap="round" opacity=".78"/>
  <rect x="166" y="416" width="114" height="32" rx="10" fill="#34d399"/>
  <path d="M540 252h170M540 398h202" stroke="#38bdf8" stroke-width="16" stroke-linecap="round"/>
  <path d="M540 280h238M540 426h142" stroke="#f4f0e8" stroke-width="12" stroke-linecap="round" opacity=".5"/>
</svg>
